<svg width="84" height="60" viewBox="0 0 84 60" fill="none" xmlns="http://www.w3.org/2000/svg">
<path d="M64.5 37.5V26.25H53.25V18.75H64.5V7.5H72V18.75H83.25V26.25H72V37.5H64.5ZM30.75 30C26.625 30 23.0938 28.5313 20.1562 25.5938C17.2187 22.6562 15.75 19.125 15.75 15C15.75 10.875 17.2187 7.34375 20.1562 4.40625C23.0938 1.46875 26.625 0 30.75 0C34.875 0 38.4062 1.46875 41.3438 4.40625C44.2813 7.34375 45.75 10.875 45.75 15C45.75 19.125 44.2813 22.6562 41.3438 25.5938C38.4062 28.5313 34.875 30 30.75 30ZM0.75 60V49.5C0.75 47.375 1.29687 45.4219 2.39062 43.6406C3.48438 41.8594 4.9375 40.5 6.75 39.5625C10.625 37.625 14.5625 36.1719 18.5625 35.2031C22.5625 34.2344 26.625 33.75 30.75 33.75C34.875 33.75 38.9375 34.2344 42.9375 35.2031C46.9375 36.1719 50.875 37.625 54.75 39.5625C56.5625 40.5 58.0156 41.8594 59.1094 43.6406C60.2031 45.4219 60.75 47.375 60.75 49.5V60H0.75ZM8.25 52.5H53.25V49.5C53.25 48.8125 53.0781 48.1875 52.7344 47.625C52.3906 47.0625 51.9375 46.625 51.375 46.3125C48 44.625 44.5938 43.3594 41.1562 42.5156C37.7187 41.6719 34.25 41.25 30.75 41.25C27.25 41.25 23.7813 41.6719 20.3438 42.5156C16.9062 43.3594 13.5 44.625 10.125 46.3125C9.5625 46.625 9.10938 47.0625 8.76562 47.625C8.42187 48.1875 8.25 48.8125 8.25 49.5V52.5ZM30.75 22.5C32.8125 22.5 34.5781 21.7656 36.0469 20.2969C37.5156 18.8281 38.25 17.0625 38.25 15C38.25 12.9375 37.5156 11.1719 36.0469 9.70312C34.5781 8.23437 32.8125 7.5 30.75 7.5C28.6875 7.5 26.9219 8.23437 25.4531 9.70312C23.9844 11.1719 23.25 12.9375 23.25 15C23.25 17.0625 23.9844 18.8281 25.4531 20.2969C26.9219 21.7656 28.6875 22.5 30.75 22.5Z" fill="black"/>
</svg>
