<svg width="72" height="64" viewBox="0 0 72 64" fill="none" xmlns="http://www.w3.org/2000/svg">
<path d="M0 60V49.5C0 47.375 0.546875 45.4219 1.64062 43.6406C2.73438 41.8594 4.1875 40.5 6 39.5625C9.875 37.625 13.8125 36.1719 17.8125 35.2031C21.8125 34.2344 25.875 33.75 30 33.75C32.3125 33.75 34.5938 33.8906 36.8438 34.1719C39.0938 34.4531 41.3438 34.9063 43.5938 35.5312L37.3125 41.9062C36.0625 41.7188 34.8438 41.5625 33.6562 41.4375C32.4687 41.3125 31.25 41.25 30 41.25C26.5 41.25 23.0313 41.6719 19.5938 42.5156C16.1562 43.3594 12.75 44.625 9.375 46.3125C8.8125 46.625 8.35938 47.0625 8.01562 47.625C7.67187 48.1875 7.5 48.8125 7.5 49.5V52.5H30V60H0ZM37.5 63.75V52.2188L58.2188 31.5938C58.7812 31.0312 59.4062 30.625 60.0938 30.375C60.7813 30.125 61.4687 30 62.1562 30C62.9062 30 63.625 30.1406 64.3125 30.4219C65 30.7031 65.625 31.125 66.1875 31.6875L69.6562 35.1562C70.1563 35.7188 70.5469 36.3437 70.8281 37.0312C71.1094 37.7188 71.25 38.4062 71.25 39.0938C71.25 39.7813 71.125 40.4844 70.875 41.2031C70.625 41.9219 70.2188 42.5625 69.6562 43.125L49.0312 63.75H37.5ZM43.125 58.125H46.6875L58.0312 46.6875L56.3438 44.9062L54.5625 43.2188L43.125 54.5625V58.125ZM56.3438 44.9062L54.5625 43.2188L58.0312 46.6875L56.3438 44.9062ZM30 30C25.875 30 22.3438 28.5313 19.4062 25.5938C16.4687 22.6562 15 19.125 15 15C15 10.875 16.4687 7.34375 19.4062 4.40625C22.3438 1.46875 25.875 0 30 0C34.125 0 37.6562 1.46875 40.5938 4.40625C43.5313 7.34375 45 10.875 45 15C45 19.125 43.5313 22.6562 40.5938 25.5938C37.6562 28.5313 34.125 30 30 30ZM30 22.5C32.0625 22.5 33.8281 21.7656 35.2969 20.2969C36.7656 18.8281 37.5 17.0625 37.5 15C37.5 12.9375 36.7656 11.1719 35.2969 9.70312C33.8281 8.23437 32.0625 7.5 30 7.5C27.9375 7.5 26.1719 8.23437 24.7031 9.70312C23.2344 11.1719 22.5 12.9375 22.5 15C22.5 17.0625 23.2344 18.8281 24.7031 20.2969C26.1719 21.7656 27.9375 22.5 30 22.5Z" fill="black"/>
</svg>
