<svg width="87" height="46" viewBox="0 0 87 46" fill="none" xmlns="http://www.w3.org/2000/svg">
<path d="M23.25 30.5C21.1875 30.5 19.4219 29.7656 17.9531 28.2969C16.4844 26.8281 15.75 25.0625 15.75 23C15.75 20.9375 16.4844 19.1719 17.9531 17.7031C19.4219 16.2344 21.1875 15.5 23.25 15.5C25.3125 15.5 27.0781 16.2344 28.5469 17.7031C30.0156 19.1719 30.75 20.9375 30.75 23C30.75 25.0625 30.0156 26.8281 28.5469 28.2969C27.0781 29.7656 25.3125 30.5 23.25 30.5ZM23.25 45.5C17 45.5 11.6875 43.3125 7.3125 38.9375C2.9375 34.5625 0.75 29.25 0.75 23C0.75 16.75 2.9375 11.4375 7.3125 7.0625C11.6875 2.6875 17 0.5 23.25 0.5C27.4375 0.5 31.2344 1.53125 34.6406 3.59375C38.0469 5.65625 40.75 8.375 42.75 11.75H75.75L87 23L70.125 39.875L62.625 34.25L55.125 39.875L47.1562 34.25H42.75C40.75 37.625 38.0469 40.3438 34.6406 42.4062C31.2344 44.4688 27.4375 45.5 23.25 45.5ZM23.25 38C26.75 38 29.8281 36.9375 32.4844 34.8125C35.1406 32.6875 36.9063 30 37.7812 26.75H49.5L54.9375 30.5938L62.625 24.875L69.2812 30.0312L76.3125 23L72.5625 19.25H37.7812C36.9063 16 35.1406 13.3125 32.4844 11.1875C29.8281 9.0625 26.75 8 23.25 8C19.125 8 15.5938 9.46875 12.6562 12.4062C9.71875 15.3438 8.25 18.875 8.25 23C8.25 27.125 9.71875 30.6562 12.6562 33.5938C15.5938 36.5313 19.125 38 23.25 38Z" fill="black"/>
</svg>
